<?xml version="1.0" standalone="no"?>
<!DOCTYPE svg PUBLIC "-//W3C//DTD SVG 20010904//EN"
 "http://www.w3.org/TR/2001/REC-SVG-20010904/DTD/svg10.dtd">
<svg version="1.0" xmlns="http://www.w3.org/2000/svg"
 width="800.000000pt" height="800.000000pt" viewBox="0 0 800.000000 800.000000"
 preserveAspectRatio="xMidYMid meet">

<g transform="translate(0.000000,800.000000) scale(0.100000,-0.100000)"
fill="#000000" stroke="none">
<path d="M0 4000 l0 -4000 240 0 240 0 0 38 c0 20 -7 62 -15 92 -9 32 -15 99
-15 160 0 192 43 376 126 543 24 48 51 120 59 160 21 100 58 200 106 279 77
130 246 285 389 358 25 12 61 36 80 53 19 17 59 42 90 56 31 14 150 75 264
136 200 105 209 111 227 151 18 44 40 62 204 166 142 90 219 134 268 152 26
10 69 32 95 50 26 18 71 42 101 54 49 20 56 21 71 7 32 -29 61 -18 140 58 68
64 273 217 365 273 75 44 151 140 181 228 9 25 20 48 25 52 18 11 7 35 -54
116 -66 87 -100 138 -93 138 7 0 146 -170 166 -203 16 -26 17 -35 7 -52 -7
-11 -18 -38 -25 -60 -14 -51 -105 -161 -180 -220 -31 -25 -118 -89 -192 -142
-74 -53 -164 -124 -200 -158 -75 -72 -101 -83 -135 -61 -22 15 -28 14 -77 -5
-29 -11 -60 -27 -68 -34 -9 -8 -63 -36 -120 -63 -58 -27 -139 -72 -180 -99
-41 -27 -114 -73 -161 -101 -88 -53 -114 -80 -121 -123 -4 -28 -33 -45 -358
-211 -118 -60 -228 -122 -245 -137 -16 -15 -65 -47 -109 -70 -223 -118 -363
-303 -429 -566 -14 -55 -46 -145 -72 -200 -81 -169 -117 -329 -116 -515 0 -82
6 -142 16 -175 8 -27 15 -67 15 -87 l0 -38 1169 0 1169 0 12 72 c28 164 100
497 125 576 3 8 35 -14 85 -57 109 -94 344 -211 488 -242 77 -16 74 -9 47
-164 -14 -77 -25 -150 -25 -162 l0 -23 320 0 319 0 3 132 3 133 338 0 338 0
-5 -30 c-3 -16 -10 -61 -15 -100 -5 -38 -13 -85 -16 -102 l-7 -33 1571 0 1571
0 0 354 c0 195 -3 356 -8 358 -4 2 -32 51 -62 110 -30 59 -76 133 -103 164
-26 31 -72 89 -101 128 -95 126 -179 190 -560 425 -33 20 -80 57 -105 83 -25
26 -85 69 -133 96 -53 29 -123 80 -175 128 -49 44 -136 122 -195 172 -114 98
-134 106 -202 81 -30 -11 -37 -7 -150 72 -122 86 -165 129 -396 394 -52 60
-149 169 -215 243 -188 209 -171 181 -194 320 -12 68 -25 165 -31 215 -16 144
-68 376 -96 431 -35 67 -45 96 -34 96 5 0 26 -30 46 -66 39 -69 76 -222 109
-444 21 -139 44 -287 51 -329 4 -24 24 -54 68 -100 62 -66 258 -288 454 -514
112 -130 115 -132 252 -231 l94 -69 43 12 c78 20 84 18 214 -96 67 -60 154
-136 193 -171 39 -34 116 -89 171 -122 55 -32 123 -82 150 -110 28 -28 70 -63
95 -78 50 -29 230 -148 328 -216 95 -66 207 -170 267 -250 30 -39 73 -93 95
-121 22 -27 58 -87 80 -132 22 -46 42 -83 45 -83 3 0 5 1631 5 3625 l0 3625
-1416 0 -1417 0 6 -52 c6 -63 60 -224 84 -250 9 -10 61 -46 117 -80 115 -70
191 -138 237 -210 27 -42 44 -55 104 -83 97 -44 141 -78 270 -205 220 -217
288 -302 360 -450 50 -103 67 -156 113 -355 53 -222 62 -283 62 -403 0 -147
-20 -247 -79 -392 -26 -63 -62 -153 -81 -200 -33 -85 -53 -119 -153 -261 -105
-148 -154 -205 -228 -262 -84 -66 -165 -111 -181 -101 -6 4 9 16 34 28 68 33
183 122 232 180 24 28 68 89 98 136 30 47 63 91 72 99 27 23 86 135 121 234
18 50 49 126 68 168 33 70 56 165 72 295 9 68 -11 269 -36 369 -11 44 -36 145
-56 224 -63 254 -161 412 -405 650 -156 152 -216 197 -308 234 -57 22 -68 31
-91 72 -38 68 -95 124 -178 175 -40 25 -101 66 -135 91 -56 42 -64 52 -95 130
-22 55 -36 107 -39 152 -3 48 -9 67 -18 67 -26 0 -9 -171 23 -238 19 -40 13
-48 -24 -29 -15 8 -84 29 -153 46 -69 17 -165 42 -215 56 -117 32 -320 49
-505 42 -118 -4 -188 -14 -374 -52 -126 -25 -277 -61 -336 -80 -58 -19 -177
-53 -264 -75 -147 -38 -165 -40 -294 -39 -158 1 -273 16 -443 58 -57 13 -179
63 -179 73 0 13 23 9 66 -11 46 -22 178 -55 284 -71 41 -7 94 -15 118 -20 24
-4 100 -7 170 -6 133 3 212 18 437 85 203 61 312 91 390 105 44 8 112 22 150
30 166 36 338 44 548 25 151 -13 280 -42 571 -127 16 -4 18 -1 12 24 -4 16 -9
68 -13 117 l-6 87 -2548 0 -2549 0 0 -4000z m4619 3839 c58 -5 130 -18 160
-29 31 -10 90 -28 131 -40 86 -25 290 -121 311 -146 11 -14 6 -13 -26 3 -22
12 -80 33 -130 48 -49 15 -120 37 -156 50 -296 105 -529 128 -879 89 -39 -5
-52 -3 -45 4 6 6 57 18 115 26 113 16 328 14 519 -5z m-2124 -152 c47 -15 268
-63 345 -74 19 -3 107 -8 195 -12 153 -6 158 -7 112 -19 -192 -51 -550 -297
-734 -505 -64 -71 -149 -223 -208 -372 -31 -79 -64 -250 -65 -338 0 -44 -7
-72 -31 -119 -40 -80 -57 -128 -74 -208 -7 -36 -25 -117 -38 -180 -14 -63 -28
-149 -32 -190 -4 -41 -14 -100 -22 -130 -24 -92 -29 -293 -9 -381 38 -170 144
-272 300 -288 l59 -6 31 -58 c39 -74 115 -159 166 -188 26 -15 39 -28 35 -37
-3 -7 -5 -20 -5 -28 0 -8 -5 -14 -11 -14 -7 0 -9 10 -7 25 4 21 0 28 -29 41
-42 21 -138 125 -168 184 -22 44 -25 45 -90 58 -85 16 -136 42 -194 100 -116
116 -153 281 -116 512 9 52 24 156 35 230 28 202 82 406 149 557 25 58 31 86
32 145 2 165 29 264 130 466 71 144 85 165 170 255 143 153 375 330 554 424
30 15 55 30 55 33 0 3 -30 6 -67 7 -75 2 -110 6 -133 15 -8 4 -33 9 -55 11
-128 15 -288 57 -365 95 -68 34 -80 60 -13 28 26 -13 71 -30 98 -39z m3091
-94 c49 -75 42 -76 -12 -2 -26 35 -61 80 -78 99 -28 32 -27 32 13 -5 24 -22
59 -63 77 -92z m-16 -44 c27 -51 20 -50 -15 4 -16 23 -48 67 -73 97 l-44 55
56 -58 c31 -32 65 -76 76 -98z m358 -184 c72 -22 62 -27 -16 -9 -35 8 -95 19
-135 24 l-72 9 85 -4 c47 -2 109 -11 138 -20z m-73 -28 c50 -7 99 -19 110 -26
l20 -13 -20 7 c-11 4 -40 9 -65 11 -53 4 -184 32 -155 33 11 0 61 -5 110 -12z
m-3136 -137 c-202 -215 -311 -360 -338 -449 -7 -24 -32 -76 -56 -115 -23 -39
-64 -111 -90 -161 -26 -49 -52 -94 -57 -100 -6 -6 -7 22 -4 80 13 199 131 460
274 608 61 62 337 247 370 247 2 0 -42 -50 -99 -110z m-146 -212 c-38 -51 -88
-121 -112 -155 -24 -35 -46 -63 -48 -63 -10 0 54 104 118 190 82 110 101 132
107 126 2 -3 -27 -47 -65 -98z m3628 -166 c63 -86 152 -262 163 -322 5 -27 -2
-18 -32 40 -58 115 -154 268 -198 315 -14 15 -38 54 -55 88 l-31 62 46 -50
c25 -27 73 -87 107 -133z m185 -461 c19 -52 32 -97 29 -99 -5 -5 -6 -3 -70
163 -59 151 -61 159 -24 90 18 -33 47 -102 65 -154z m-4259 -164 c-32 -90 -75
-187 -83 -187 -8 0 6 43 79 229 30 79 34 43 4 -42z m4313 -8 c0 -11 -4 -17
-10 -14 -5 3 -10 13 -10 21 0 8 5 14 10 14 6 0 10 -9 10 -21z m23 -114 c7 -70
-7 -46 -18 31 -5 32 -4 46 3 39 5 -5 12 -37 15 -70z m-3214 -522 c3 -207 39
-375 112 -520 32 -65 42 -92 31 -88 -41 15 -170 46 -312 75 -85 17 -170 35
-189 41 -33 11 -34 12 -14 28 42 33 149 199 215 334 17 34 50 94 74 132 23 39
50 88 60 108 10 20 19 37 20 37 1 0 2 -66 3 -147z m-1261 -261 c32 -101 118
-207 212 -263 61 -36 69 -44 79 -84 16 -64 17 -63 -41 -53 -151 27 -243 122
-277 286 -13 60 -14 210 -3 292 7 54 7 52 13 -45 4 -55 12 -115 17 -133z m942
-117 c-17 -25 -33 -45 -36 -45 -7 0 3 17 34 58 36 48 38 39 2 -13z m35 -155
c55 -17 156 -43 225 -59 188 -44 223 -53 247 -62 13 -5 35 -34 54 -71 76 -150
236 -298 323 -298 13 0 50 -13 81 -30 80 -42 82 -37 5 10 -36 22 -71 40 -79
40 -20 0 -102 54 -132 87 -23 26 -69 97 -69 109 0 3 19 -19 43 -48 78 -97 335
-238 433 -238 37 0 80 -10 239 -54 28 -7 122 -17 211 -21 141 -6 163 -5 177 9
15 15 17 15 31 -6 43 -66 58 -244 30 -360 -15 -62 -23 -73 -88 -139 -39 -40
-104 -94 -145 -121 -98 -64 -180 -90 -309 -96 -103 -4 -104 -4 -177 32 -111
55 -188 153 -239 304 -28 83 -51 273 -41 348 4 34 3 54 -4 54 -15 0 -24 -104
-18 -205 16 -237 137 -449 300 -526 82 -38 137 -44 279 -30 209 20 262 49 364
196 133 191 160 253 149 346 l-7 57 52 41 c28 23 62 41 75 41 27 0 105 82 136
142 41 81 182 185 267 199 26 4 49 5 51 3 2 -2 -7 -12 -20 -23 -20 -17 -21
-20 -6 -21 9 0 17 -8 17 -18 0 -10 7 -28 16 -41 14 -20 23 -22 55 -18 38 5 39
4 39 -27 0 -18 -6 -38 -12 -44 -10 -10 -8 -14 10 -18 26 -7 26 -16 7 -107 -23
-112 -97 -255 -116 -225 -7 10 -9 10 -9 -3 0 -56 -161 -244 -235 -275 -55 -22
-52 -12 7 29 54 37 139 117 124 117 -4 0 -28 -18 -53 -39 -57 -51 -199 -136
-253 -152 -31 -9 -53 -26 -79 -59 -93 -117 -309 -340 -325 -334 -6 2 -43 -28
-81 -67 -71 -74 -148 -128 -283 -201 -42 -23 -93 -51 -112 -63 -80 -48 -352
-177 -401 -190 -68 -19 -108 -18 -54 1 39 13 37 13 -36 7 -47 -3 -90 -1 -112
6 -48 16 -172 139 -229 226 -24 39 -65 102 -90 140 -185 286 -243 384 -278
465 l-39 92 27 -6 c15 -4 53 -10 85 -13 51 -5 65 -2 124 27 148 73 247 231
273 436 11 89 -3 235 -30 306 -24 64 -25 82 -5 74 12 -4 14 0 9 18 -8 33 6 38
62 21 27 -8 52 -11 57 -6 8 8 -42 51 -60 51 -5 0 -18 7 -29 15 -18 13 -18 14
6 9 24 -5 25 -5 5 11 -34 27 -185 107 -196 103 -6 -2 11 -16 38 -31 26 -14 44
-27 38 -27 -12 0 -65 32 -145 88 -100 71 -163 94 -247 94 -75 -1 -90 8 -55 34
22 17 11 18 127 -16z m31 -55 c27 -8 60 -24 74 -35 l25 -20 -30 9 c-16 5 -58
12 -93 15 -61 6 -63 5 -57 -15 6 -19 4 -20 -27 -14 -63 13 -99 27 -95 38 12
37 117 48 203 22z m3064 10 c0 -3 -11 -28 -25 -55 -25 -49 -116 -133 -173
-160 -68 -32 -112 -57 -172 -98 -115 -79 -107 -64 -113 -225 -4 -131 -7 -148
-37 -222 -25 -63 -46 -95 -99 -151 -36 -39 -90 -97 -119 -129 -29 -31 -56 -55
-58 -52 -3 3 19 29 49 58 30 30 61 68 70 84 8 17 35 48 60 69 30 26 48 51 57
79 6 23 17 51 25 62 27 44 46 162 39 258 -6 92 -6 92 22 118 16 15 70 54 119
87 81 54 314 246 330 272 6 10 25 14 25 5z m-3001 -74 c46 -11 90 -26 98 -34
11 -11 -10 -9 -89 10 -56 13 -107 28 -112 34 -14 13 7 11 103 -10z m-146 -116
c59 -6 77 -11 77 -23 0 -8 7 -20 17 -27 32 -23 6 -34 -50 -20 -114 28 -109 28
-97 4 7 -12 10 -39 8 -60 -4 -42 1 -46 32 -27 15 9 24 9 43 -1 13 -7 42 -13
63 -14 22 0 45 -4 51 -10 7 -5 21 -6 30 -2 10 4 35 8 55 10 20 2 45 6 56 9 14
5 21 1 25 -14 7 -26 37 -26 37 -1 0 11 -6 22 -12 24 -7 3 5 6 28 6 l40 1 25
-67 c21 -60 24 -85 24 -213 0 -153 -9 -197 -60 -300 -56 -111 -177 -212 -273
-226 -52 -8 -140 15 -164 44 -22 24 -73 201 -88 297 -6 44 -22 137 -36 206
-13 69 -26 150 -28 180 -2 30 -7 61 -10 69 -15 39 -24 106 -19 139 8 62 6 61
80 41 38 -10 103 -21 146 -25z m-393 -101 c28 -26 57 -44 71 -44 l24 -1 -24
-19 c-32 -27 -51 -25 -51 4 0 16 -11 32 -32 47 l-33 23 24 -27 c32 -35 19 -48
-15 -16 -23 20 -54 75 -54 94 0 12 45 -19 90 -61z m380 6 c0 -5 -2 -10 -4 -10
-3 0 -8 5 -11 10 -3 6 -1 10 4 10 6 0 11 -4 11 -10z m2598 -74 c6 -31 -14 -40
-37 -17 -19 19 -19 21 -3 30 22 13 36 9 40 -13z m-2841 -29 c6 -13 17 -84 23
-158 12 -132 58 -361 86 -428 21 -49 10 -49 -26 1 -66 90 -131 253 -165 414
-8 38 -19 85 -25 104 -12 42 -12 40 0 40 5 0 26 11 46 25 45 31 48 31 61 2z
m1446 -69 l62 -38 -52 0 c-49 0 -53 2 -82 42 -36 49 -43 82 -11 53 11 -10 48
-35 83 -57z m-1628 43 c-4 -13 1 -24 16 -35 12 -8 25 -13 29 -11 4 3 15 -35
25 -83 39 -196 110 -361 212 -489 29 -37 53 -72 53 -79 0 -14 111 -233 139
-273 27 -40 123 -222 119 -227 -5 -5 -105 161 -160 266 -25 47 -59 108 -75
135 -17 28 -37 67 -44 88 -8 22 -28 55 -45 75 -104 125 -181 299 -214 490 -12
66 -16 74 -47 93 -22 14 -32 27 -29 36 3 8 6 19 6 24 0 5 5 9 11 9 6 0 8 -8 4
-19z m2396 -51 c12 0 19 -7 19 -19 0 -19 -2 -19 -45 -4 -55 18 -73 39 -25 30
18 -4 41 -7 51 -7z m19 -92 c0 -45 15 -43 35 5 l13 31 17 -33 16 -33 -42 -36
c-70 -61 -91 -65 -109 -21 -7 17 -24 47 -37 66 -34 50 -26 61 46 61 l61 0 0
-40z m-53 -280 c-2 -13 -4 -5 -4 17 -1 22 1 32 4 23 2 -10 2 -28 0 -40z
m-2027 -159 c12 -34 19 -64 15 -67 -7 -7 -15 2 -20 24 -2 11 -11 46 -19 79 -9
32 -16 68 -15 80 1 11 5 3 10 -17 5 -21 18 -65 29 -99z m54 -145 c4 -10 1 -14
-6 -12 -15 5 -23 28 -10 28 5 0 13 -7 16 -16z m1775 -50 c-31 -34 -97 -79
-129 -89 -14 -4 2 11 35 32 33 22 71 52 84 67 14 14 27 24 29 21 3 -3 -5 -17
-19 -31z m334 -36 c-11 -13 -25 -42 -32 -65 -6 -24 -18 -43 -25 -43 -8 0 -16
-10 -19 -22 -4 -12 -9 -19 -12 -16 -16 16 73 168 98 168 6 0 1 -10 -10 -22z
m306 -31 c1 -5 -3 -5 -9 -2 -5 3 -10 16 -9 28 0 21 1 21 9 2 5 -11 9 -24 9
-28z m-485 -173 c-22 -26 -59 -63 -84 -82 -33 -27 -24 -14 35 48 85 91 114
110 49 34z m-1620 -266 l19 -33 -24 22 c-13 12 -33 37 -43 55 l-19 33 24 -22
c13 -12 33 -37 43 -55z m786 -309 c-93 -50 -142 -71 -148 -64 -5 5 196 103
213 104 6 0 -24 -18 -65 -40z m-810 -44 c0 -3 -29 -35 -65 -72 -36 -38 -65
-62 -65 -55 0 15 108 132 122 132 4 0 8 -2 8 -5z m1796 -240 c-9 -13 -33 -33
-54 -44 -44 -23 -172 -138 -172 -154 0 -6 17 5 38 24 64 61 125 105 170 122
52 19 57 13 48 -65 -16 -138 -16 -255 -1 -658 9 -239 19 -468 22 -507 4 -51 2
-73 -6 -73 -13 0 -17 9 -25 60 -4 20 -15 41 -27 48 -18 12 -19 11 -10 -7 37
-69 -35 -24 -193 120 -58 53 -165 123 -258 170 -35 17 -79 44 -99 60 -38 30
-95 56 -84 39 9 -15 4 -13 -86 32 -95 47 -119 64 -119 86 0 9 -9 26 -21 38
l-21 22 -61 -27 c-34 -16 -87 -44 -118 -64 -30 -19 -72 -42 -94 -51 -21 -9
-57 -31 -79 -49 -23 -18 -61 -46 -86 -62 -25 -16 -63 -43 -86 -61 -22 -18 -58
-42 -80 -54 -21 -12 -56 -31 -76 -43 -21 -11 -41 -17 -45 -13 -11 11 45 170
108 306 31 69 61 138 64 153 4 15 12 30 18 34 6 4 8 -2 4 -18 -4 -13 -10 -41
-13 -61 -6 -37 -6 -38 24 -38 55 0 418 105 535 155 15 6 17 1 17 -39 0 -45 0
-45 29 -40 l29 6 -11 -39 c-6 -23 -7 -48 -2 -59 6 -14 10 -6 16 34 4 29 9 56
12 59 10 9 27 -8 27 -27 0 -43 87 -74 157 -57 51 13 50 10 41 87 -3 23 -8 25
-58 27 -30 1 -70 -5 -90 -12 -30 -12 -22 -3 49 63 47 42 146 136 220 208 75
72 177 166 226 208 50 43 121 104 159 137 70 61 92 70 62 24z m-1090 -90 c13
-27 24 -58 24 -68 0 -10 11 -28 24 -40 12 -12 29 -40 36 -61 7 -22 37 -76 66
-121 62 -96 77 -131 69 -162 -7 -29 -40 -30 -55 -3 -14 26 -6 40 20 33 28 -7
25 13 -5 33 -27 18 -109 13 -223 -12 -35 -8 -78 -14 -95 -14 -37 0 -117 -37
-166 -77 l-34 -28 13 25 c7 14 40 69 73 123 82 134 144 287 159 393 l12 84 29
-28 c16 -15 40 -49 53 -77z m2569 -535 c3 -5 2 -10 -4 -10 -5 0 -13 5 -16 10
-3 6 -2 10 4 10 5 0 13 -4 16 -10z m-2365 -155 c10 -12 9 -16 -5 -21 -19 -8
-40 9 -31 25 10 15 21 14 36 -4z m-55 -30 c0 -10 -6 -20 -14 -23 -10 -3 -12 1
-8 16 4 19 2 20 -13 12 -27 -14 -30 -23 -15 -43 11 -15 17 -17 34 -7 17 9 25
8 37 -5 10 -9 24 -13 39 -9 17 4 26 0 34 -15 10 -18 8 -20 -21 -18 -18 1 -39
6 -46 11 -7 4 -18 3 -25 -3 -14 -11 -124 -3 -132 10 -11 17 10 42 59 69 55 32
71 33 71 5z m103 -34 c3 -8 -1 -12 -9 -9 -7 2 -15 10 -17 17 -3 8 1 12 9 9 7
-2 15 -10 17 -17z m47 -31 c8 -14 42 -13 47 2 2 6 11 9 19 6 20 -7 -42 -38
-76 -38 -18 0 -25 5 -25 20 0 21 24 28 35 10z m-412 -142 c6 -96 5 -142 -8
-289 -5 -66 -3 -105 10 -165 l16 -79 -36 -94 c-39 -100 -47 -155 -63 -404 -5
-76 -12 -140 -15 -143 -24 -24 -425 150 -530 231 -57 44 -83 89 -69 119 6 11
29 84 52 161 41 137 132 423 152 478 10 27 14 28 57 23 77 -10 344 -12 379 -3
31 8 32 10 18 26 -20 22 -20 31 -1 31 10 0 15 10 15 32 0 25 -3 29 -12 20 -18
-18 -28 -15 -28 8 0 25 -5 25 -30 0 -17 -17 -31 -20 -90 -18 -42 2 -74 -1 -78
-8 -4 -5 -22 -16 -40 -23 -18 -8 -41 -24 -51 -37 -13 -16 -29 -24 -50 -24 -17
0 -31 3 -31 8 0 4 44 30 97 57 54 28 122 66 153 85 30 20 76 46 102 58 25 12
49 26 53 32 15 25 23 4 28 -82z m693 30 c19 -21 19 -21 -3 -16 -25 7 -40 -17
-17 -26 8 -3 14 -9 14 -14 0 -9 -66 -36 -90 -36 -9 -1 -18 -20 -25 -56 -6 -30
-18 -72 -25 -92 -8 -21 -11 -41 -7 -44 4 -4 87 -30 186 -59 154 -44 182 -50
202 -39 32 17 37 40 23 103 -7 30 -10 59 -7 64 3 5 -12 27 -33 49 l-39 40 78
-47 c83 -50 106 -76 213 -240 53 -82 58 -87 85 -81 29 5 29 5 29 -43 0 -26 -7
-92 -15 -147 -9 -54 -29 -191 -45 -304 -22 -147 -35 -208 -46 -217 -19 -14
-89 -20 -359 -33 -115 -5 -237 -12 -269 -16 l-59 -5 9 248 c4 136 7 271 7 298
-8 225 -1 341 28 455 16 63 29 132 29 152 0 32 5 41 44 67 24 17 46 37 49 46
9 21 20 19 43 -7z m75 -55 c13 -16 12 -17 -3 -4 -17 13 -22 21 -14 21 2 0 10
-8 17 -17z m-1003 -103 c5 0 12 -6 15 -13 3 -8 -1 -14 -9 -14 -7 0 -10 5 -7
11 3 6 0 5 -8 -1 -7 -7 -29 -13 -48 -13 l-36 0 30 29 c25 24 32 27 41 15 6 -8
16 -14 22 -14z m3595 13 c10 -10 45 -34 78 -53 245 -147 503 -336 517 -379 3
-8 -25 11 -63 43 -96 81 -291 210 -445 294 -85 46 -130 80 -130 98 0 19 19 18
43 -3z"/>
<path d="M2589 7146 c-110 -74 -131 -94 -180 -163 -59 -82 -114 -183 -148
-270 -26 -66 -61 -204 -60 -235 l0 -23 12 25 c6 14 36 70 68 125 31 55 73 134
93 175 53 104 114 189 239 329 59 67 106 121 104 121 -2 0 -59 -38 -128 -84z"/>
<path d="M1970 5246 c0 -2 7 -32 16 -66 36 -141 83 -207 170 -240 68 -25 109
-27 100 -4 -3 9 -6 20 -6 24 0 5 -26 27 -57 49 -73 49 -152 132 -188 194 -24
42 -35 55 -35 43z"/>
<path d="M5310 4579 c-30 -10 -41 -16 -25 -14 17 3 47 8 67 11 21 4 35 10 32
15 -7 11 -7 11 -74 -12z"/>
<path d="M3580 4548 c-13 -35 -21 -43 -55 -53 -49 -14 -92 -41 -106 -66 -7
-14 1 -11 33 11 24 16 58 33 77 37 31 6 34 4 27 -13 -5 -10 -17 -46 -28 -79
-24 -73 -97 -230 -139 -298 -38 -62 -31 -74 9 -15 47 68 102 184 143 298 25
71 42 106 54 108 29 6 74 -19 110 -61 43 -50 46 -35 5 21 -23 33 -40 44 -76
53 l-46 12 7 43 c3 24 5 44 3 44 -2 0 -10 -19 -18 -42z"/>
<path d="M5383 4559 c-6 -6 -36 -21 -66 -34 -73 -29 -110 -60 -142 -118 -29
-53 -23 -83 10 -47 18 20 18 20 31 -6 8 -15 14 -37 14 -50 0 -33 18 -40 26 -9
4 16 12 24 23 23 13 -3 16 9 19 74 2 51 8 80 17 88 12 10 15 6 21 -17 4 -15
14 -36 22 -45 17 -20 3 -25 -17 -5 -11 10 -13 9 -9 -3 7 -20 64 -17 89 6 18
16 19 16 19 -10 0 -44 18 -20 25 35 6 44 4 54 -20 90 -29 40 -43 47 -62 28z
m-3 -79 c0 -11 -4 -20 -10 -20 -5 0 -10 9 -10 20 0 11 5 20 10 20 6 0 10 -9
10 -20z m20 -51 c0 -5 -4 -9 -10 -9 -5 0 -10 7 -10 16 0 8 5 12 10 9 6 -3 10
-10 10 -16z"/>
<path d="M3998 4453 c7 -3 16 -2 19 1 4 3 -2 6 -13 5 -11 0 -14 -3 -6 -6z"/>
<path d="M4098 4428 c5 -5 16 -8 23 -6 8 3 3 7 -10 11 -17 4 -21 3 -13 -5z"/>
<path d="M4185 4405 c27 -8 51 -12 53 -10 5 5 -69 25 -88 24 -8 0 7 -7 35 -14z"/>
<path d="M4188 4373 c7 -3 16 -2 19 1 4 3 -2 6 -13 5 -11 0 -14 -3 -6 -6z"/>
<path d="M4275 4360 c28 -5 64 -8 80 -8 l30 0 -30 8 c-16 4 -52 8 -80 7 l-50
0 50 -7z"/>
<path d="M4475 4360 l-90 -6 90 -1 c50 -1 99 2 110 7 l20 9 -20 -2 c-11 0 -60
-4 -110 -7z"/>
<path d="M5166 4328 c-31 -18 -65 -61 -65 -83 l0 -20 12 20 c7 11 29 37 50 58
38 37 39 46 3 25z"/>
<path d="M5244 4074 c-51 -35 -104 -57 -104 -44 0 13 -96 -24 -121 -46 -20
-18 -25 -44 -9 -44 6 0 10 4 10 10 0 15 80 52 97 46 28 -11 88 15 138 59 55
50 49 60 -11 19z"/>
<path d="M3411 3960 c14 -19 36 -53 47 -75 12 -22 21 -35 21 -30 1 16 -56 110
-76 125 -11 10 -8 2 8 -20z"/>
<path d="M3402 3880 c11 -28 23 -48 25 -46 5 5 -34 96 -41 96 -3 0 5 -23 16
-50z"/>
<path d="M3334 3602 c11 -19 88 -60 152 -82 39 -14 109 -25 204 -32 131 -10
148 -10 175 6 l30 17 -28 -4 c-42 -6 -497 80 -531 101 -5 3 -6 0 -2 -6z"/>
<path d="M5920 4839 c-77 -73 -72 -74 17 -4 49 39 81 75 66 75 -5 0 -42 -32
-83 -71z"/>
<path d="M2596 4555 c-23 -21 -26 -30 -20 -62 12 -72 45 -187 81 -282 44 -120
69 -152 42 -55 -11 38 -26 128 -34 199 -23 197 -27 225 -35 225 -4 0 -19 -11
-34 -25z"/>
<path d="M4400 1910 c0 -5 5 -10 11 -10 5 0 7 5 4 10 -3 6 -8 10 -11 10 -2 0
-4 -4 -4 -10z"/>
<path d="M4460 1891 c0 -33 39 -37 68 -7 l27 26 -48 0 c-40 0 -47 -3 -47 -19z"/>
<path d="M4372 1874 c9 -9 21 -15 27 -13 6 2 -2 10 -17 17 -25 11 -25 11 -10
-4z"/>
<path d="M4520 1800 c0 -5 5 -10 10 -10 6 0 10 5 10 10 0 6 -4 10 -10 10 -5 0
-10 -4 -10 -10z"/>
<path d="M4570 1692 c19 -17 40 -31 45 -31 11 -1 -29 34 -60 50 -11 6 -4 -3
15 -19z"/>
<path d="M4880 1486 c0 -2 8 -10 18 -17 15 -13 16 -12 3 4 -13 16 -21 21 -21
13z"/>
<path d="M3870 2392 c0 -5 16 -27 35 -48 19 -21 35 -42 35 -46 0 -4 5 -8 11
-8 5 0 -4 20 -22 45 -37 51 -59 73 -59 57z"/>
<path d="M3792 2363 c-6 -15 -12 -53 -14 -83 -3 -54 -2 -55 25 -58 18 -2 42 5
63 20 34 23 43 38 23 38 -6 0 -9 9 -6 20 3 14 0 20 -10 20 -13 0 -13 3 -3 15
21 25 -5 17 -29 -9 -17 -18 -22 -32 -17 -49 4 -16 0 -29 -9 -37 -13 -11 -15
-8 -15 14 0 14 5 46 12 71 9 32 9 48 2 55 -8 8 -14 3 -22 -17z m70 -83 c1 -9
-1 -17 -7 -18 -5 -1 -11 10 -13 25 -4 29 13 23 20 -7z"/>
<path d="M3642 1678 c2 -13 8 -23 13 -23 6 0 11 10 13 23 2 15 -2 22 -13 22
-11 0 -15 -7 -13 -22z"/>
<path d="M4710 1255 c0 -7 135 -95 146 -95 4 0 -21 19 -57 43 -83 56 -89 59
-89 52z"/>
</g>
</svg>
